<svg width="62" height="60" viewBox="0 0 62 60" fill="none" xmlns="http://www.w3.org/2000/svg">
<rect width="62" height="60" rx="30" fill="#192335"/>
<path d="M28.6023 33.6562V33.3068C28.6023 32.3409 28.6818 31.571 28.8409 30.9972C29.0057 30.4233 29.2443 29.9631 29.5568 29.6165C29.8693 29.2642 30.25 28.9432 30.6989 28.6534C31.0568 28.4261 31.375 28.196 31.6534 27.9631C31.9375 27.7244 32.1619 27.4687 32.3267 27.196C32.4915 26.9233 32.5739 26.6136 32.5739 26.267C32.5739 25.9318 32.4943 25.6364 32.3352 25.3807C32.1761 25.125 31.9574 24.929 31.679 24.7926C31.4063 24.6506 31.1023 24.5795 30.767 24.5795C30.4318 24.5795 30.1165 24.6562 29.821 24.8097C29.5313 24.9631 29.2926 25.1818 29.1051 25.4659C28.9233 25.7443 28.8295 26.0824 28.8239 26.4801H24.9034C24.9205 25.2869 25.196 24.3097 25.7301 23.5483C26.2699 22.7869 26.983 22.2244 27.8693 21.8608C28.7557 21.4915 29.733 21.3068 30.8011 21.3068C31.9716 21.3068 33.0114 21.4886 33.9205 21.8523C34.8352 22.2159 35.554 22.7528 36.0767 23.4631C36.5994 24.1733 36.8608 25.0426 36.8608 26.071C36.8608 26.7472 36.7472 27.3437 36.5199 27.8608C36.2926 28.3778 35.9744 28.8352 35.5653 29.233C35.1619 29.625 34.6875 29.983 34.142 30.3068C33.7159 30.5568 33.3608 30.8182 33.0767 31.0909C32.7983 31.3636 32.5881 31.6761 32.446 32.0284C32.304 32.375 32.233 32.8011 32.233 33.3068V33.6562H28.6023ZM30.4858 39.2472C29.8722 39.2472 29.3466 39.0312 28.9091 38.5994C28.4773 38.1676 28.2642 37.6449 28.2699 37.0312C28.2642 36.429 28.4773 35.9148 28.9091 35.4886C29.3466 35.0568 29.8722 34.8409 30.4858 34.8409C31.071 34.8409 31.5852 35.0568 32.0284 35.4886C32.4716 35.9148 32.696 36.429 32.7017 37.0312C32.696 37.4403 32.5881 37.8125 32.3778 38.1477C32.1733 38.483 31.9034 38.75 31.5682 38.9489C31.2386 39.1477 30.8778 39.2472 30.4858 39.2472Z" fill="white"/>
</svg>
