<svg width="25" height="25" viewBox="0 0 25 25" fill="none" xmlns="http://www.w3.org/2000/svg">
<path d="M10.4063 18.7292C15.0029 18.7292 18.7292 15.0029 18.7292 10.4063C18.7292 5.80963 15.0029 2.08334 10.4063 2.08334C5.80963 2.08334 2.08334 5.80963 2.08334 10.4063C2.08334 15.0029 5.80963 18.7292 10.4063 18.7292Z" fill="#297CFF"/>
<path d="M22.8855 16.6564C22.8855 20.0939 20.0939 22.8855 16.6564 22.8855C14.5314 22.8855 12.6668 21.823 11.5418 20.2084C16.0834 19.698 19.698 16.0834 20.2084 11.5418C21.823 12.6668 22.8855 14.5314 22.8855 16.6564Z" fill="#2658A8"/>
<path d="M11.9271 10.1147L9.42709 9.23975C9.17709 9.15641 9.12501 9.13558 9.12501 8.771C9.12501 8.50016 9.31251 8.28141 9.55209 8.28141H11.1146C11.4479 8.28141 11.7188 8.5835 11.7188 8.9585C11.7188 9.38558 12.0729 9.73975 12.5 9.73975C12.9271 9.73975 13.2813 9.38558 13.2813 8.9585C13.2813 7.76058 12.3542 6.78141 11.1979 6.72933V6.67725C11.1979 6.25016 10.8438 5.896 10.4167 5.896C9.98959 5.896 9.63543 6.23975 9.63543 6.67725V6.72933H9.54168C8.44793 6.72933 7.55209 7.646 7.55209 8.78141C7.55209 9.771 7.98959 10.4064 8.89584 10.719L11.4063 11.594C11.6563 11.6773 11.7083 11.6981 11.7083 12.0627C11.7083 12.3335 11.5208 12.5523 11.2813 12.5523H9.71876C9.38543 12.5523 9.11459 12.2502 9.11459 11.8752C9.11459 11.4481 8.76043 11.094 8.33334 11.094C7.90626 11.094 7.55209 11.4481 7.55209 11.8752C7.55209 13.0731 8.47918 14.0523 9.63543 14.1044V14.1669C9.63543 14.594 9.98959 14.9481 10.4167 14.9481C10.8438 14.9481 11.1979 14.594 11.1979 14.1669V14.1148H11.2917C12.3854 14.1148 13.2813 13.1981 13.2813 12.0627C13.2813 11.0731 12.8333 10.4377 11.9271 10.1147Z" fill="#181C27"/>
</svg>
