<svg width="13" height="13" viewBox="0 0 13 13" fill="none" xmlns="http://www.w3.org/2000/svg">
<path d="M11.0122 2.29006C10.1707 1.89634 9.27094 1.6102 8.33024 1.44727C8.21471 1.65614 8.07973 1.93708 7.98668 2.16056C6.98669 2.01018 5.99589 2.01018 5.01429 2.16056C4.92125 1.93708 4.78322 1.65614 4.66665 1.44727C3.72494 1.6102 2.82412 1.89739 1.9826 2.29215C0.285265 4.85705 -0.174856 7.35824 0.0552048 9.82392C1.18097 10.6646 2.27197 11.1753 3.34456 11.5095C3.60939 11.145 3.84558 10.7576 4.04905 10.3492C3.66153 10.202 3.29037 10.0203 2.93966 9.80931C3.03271 9.74038 3.12371 9.66832 3.21164 9.59417C5.35069 10.5947 7.67482 10.5947 9.78831 9.59417C9.87727 9.66832 9.96827 9.74038 10.0603 9.80931C9.70855 10.0213 9.33637 10.203 8.94885 10.3503C9.15232 10.7576 9.3875 11.1461 9.65334 11.5105C10.727 11.1763 11.819 10.6657 12.9447 9.82392C13.2147 6.96557 12.4836 4.48735 11.0122 2.29006ZM4.34047 8.30755C3.69835 8.30755 3.17176 7.70809 3.17176 6.9781C3.17176 6.24811 3.6871 5.64761 4.34047 5.64761C4.99385 5.64761 5.52043 6.24706 5.50918 6.9781C5.5102 7.70809 4.99385 8.30755 4.34047 8.30755ZM8.65948 8.30755C8.01736 8.30755 7.49077 7.70809 7.49077 6.9781C7.49077 6.24811 8.0061 5.64761 8.65948 5.64761C9.31285 5.64761 9.83944 6.24706 9.8282 6.9781C9.8282 7.70809 9.31285 8.30755 8.65948 8.30755Z" fill="#444A54"/>
</svg>
