<svg width="13" height="13" viewBox="0 0 13 13" fill="none" xmlns="http://www.w3.org/2000/svg">
<g clip-path="url(#clip0_59_97)">
<path d="M4.92374 4.87501C5.05109 4.513 5.30245 4.20774 5.63333 4.01329C5.96418 3.81885 6.35315 3.74777 6.73139 3.81264C7.10964 3.87753 7.45268 4.07417 7.69984 4.36776C7.94695 4.66134 8.08226 5.03292 8.08166 5.41668C8.08166 6.50001 6.45666 7.04168 6.45666 7.04168M6.49999 9.20834H6.50541M11.9167 6.50001C11.9167 9.49153 9.49151 11.9167 6.49999 11.9167C3.50845 11.9167 1.08333 9.49153 1.08333 6.50001C1.08333 3.50847 3.50845 1.08334 6.49999 1.08334C9.49151 1.08334 11.9167 3.50847 11.9167 6.50001Z" stroke="#444A54" stroke-width="2" stroke-linecap="round" stroke-linejoin="round"/>
</g>
<defs>
<clipPath id="clip0_59_97">
<rect width="13" height="13" fill="white"/>
</clipPath>
</defs>
</svg>
