<svg width="25" height="24" viewBox="0 0 25 24" fill="none" xmlns="http://www.w3.org/2000/svg">
<path d="M21.5088 3.19824L18.9697 5.7373L20.2637 7.03125C20.7227 7.49023 20.7227 8.23242 20.2637 8.68652L19.4141 9.53613C19.9902 10.8105 20.3125 12.2266 20.3125 13.7158C20.3125 19.3262 15.7666 23.8721 10.1562 23.8721C4.5459 23.8721 0 19.3311 0 13.7207C0 8.11035 4.5459 3.56445 10.1562 3.56445C11.6455 3.56445 13.0615 3.88672 14.3359 4.46289L15.1855 3.61328C15.6445 3.1543 16.3867 3.1543 16.8408 3.61328L18.1348 4.90723L20.6738 2.36816L21.5088 3.19824ZM24.4141 1.80664H23.2422C22.9199 1.80664 22.6562 2.07031 22.6562 2.39258C22.6562 2.71484 22.9199 2.97852 23.2422 2.97852H24.4141C24.7363 2.97852 25 2.71484 25 2.39258C25 2.07031 24.7363 1.80664 24.4141 1.80664ZM21.4844 -1.12305C21.1621 -1.12305 20.8984 -0.859375 20.8984 -0.537109V0.634766C20.8984 0.957031 21.1621 1.2207 21.4844 1.2207C21.8066 1.2207 22.0703 0.957031 22.0703 0.634766V-0.537109C22.0703 -0.859375 21.8066 -1.12305 21.4844 -1.12305ZM23.1396 1.5625L23.9697 0.732422C24.1992 0.50293 24.1992 0.131836 23.9697 -0.0976562C23.7402 -0.327148 23.3691 -0.327148 23.1396 -0.0976562L22.3096 0.732422C22.0801 0.961914 22.0801 1.33301 22.3096 1.5625C22.5439 1.79199 22.915 1.79199 23.1396 1.5625ZM19.8291 1.5625C20.0586 1.79199 20.4297 1.79199 20.6592 1.5625C20.8887 1.33301 20.8887 0.961914 20.6592 0.732422L19.8291 -0.0976562C19.5996 -0.327148 19.2285 -0.327148 18.999 -0.0976562C18.7695 0.131836 18.7695 0.50293 18.999 0.732422L19.8291 1.5625ZM23.1396 3.22266C22.9102 2.99316 22.5391 2.99316 22.3096 3.22266C22.0801 3.45215 22.0801 3.82324 22.3096 4.05273L23.1396 4.88281C23.3691 5.1123 23.7402 5.1123 23.9697 4.88281C24.1992 4.65332 24.1992 4.28223 23.9697 4.05273L23.1396 3.22266ZM5.46875 12.1582C5.46875 10.4346 6.87012 9.0332 8.59375 9.0332C9.02344 9.0332 9.375 8.68164 9.375 8.25195C9.375 7.82227 9.02344 7.4707 8.59375 7.4707C6.01074 7.4707 3.90625 9.5752 3.90625 12.1582C3.90625 12.5879 4.25781 12.9395 4.6875 12.9395C5.11719 12.9395 5.46875 12.5879 5.46875 12.1582Z" fill="#297CFF"/>
</svg>
