<svg width="13" height="13" viewBox="0 0 13 13" fill="none" xmlns="http://www.w3.org/2000/svg">
<path d="M7.41667 1.14596V3.38333C7.41667 3.68669 7.41667 3.83838 7.47571 3.95424C7.52765 4.05616 7.61047 4.13903 7.71242 4.19096C7.82828 4.25 7.97995 4.25 8.28333 4.25H10.5207M10.6667 5.32695V9.23333C10.6667 10.1434 10.6667 10.5984 10.4895 10.9461C10.3338 11.2519 10.0852 11.5004 9.77942 11.6562C9.43178 11.8333 8.97678 11.8333 8.06667 11.8333H4.6C3.68991 11.8333 3.23487 11.8333 2.88727 11.6562C2.5815 11.5004 2.33291 11.2519 2.17711 10.9461C2 10.5984 2 10.1434 2 9.23333V3.6C2 2.68991 2 2.23487 2.17711 1.88727C2.33291 1.5815 2.5815 1.33291 2.88727 1.17711C3.23487 1 3.68991 1 4.6 1H6.33973C6.73715 1 6.93588 1 7.12292 1.0449C7.28873 1.08471 7.44722 1.15036 7.59265 1.23946C7.75662 1.33995 7.89713 1.48047 8.1782 1.76152L9.90514 3.48848C10.1862 3.76953 10.3267 3.91005 10.4272 4.07404C10.5163 4.21943 10.582 4.37794 10.6218 4.54375C10.6667 4.73077 10.6667 4.92949 10.6667 5.32695Z" stroke="#444A54" stroke-width="2" stroke-linecap="round" stroke-linejoin="round"/>
</svg>
