<svg width="14" height="14" viewBox="0 0 14 14" fill="none" xmlns="http://www.w3.org/2000/svg">
<path fill-rule="evenodd" clip-rule="evenodd" d="M4.0885 12.5999C8.99405 12.5999 11.6772 8.29034 11.6772 4.55361C11.6772 4.43094 11.6772 4.30918 11.6694 4.18789C12.1914 3.78816 12.6418 3.29185 13 2.72397C12.5138 2.95278 11.997 3.10283 11.4686 3.16899C12.025 2.81544 12.4416 2.26 12.6412 1.60459C12.1173 1.93401 11.5446 2.16651 10.9473 2.29126C9.9372 1.15273 8.24785 1.09757 7.1734 2.16855C6.48115 2.85911 6.1867 3.88872 6.40185 4.8708C4.2575 4.7564 2.2594 3.68267 0.9048 1.91631C0.19695 3.20851 0.559 4.861 1.73095 5.69077C1.3065 5.67767 0.89115 5.55651 0.52 5.33735V5.37324C0.52065 6.71921 1.4157 7.87816 2.6598 8.14487C2.2672 8.25859 1.8551 8.27508 1.456 8.19306C1.80505 9.34538 2.8067 10.1346 3.94745 10.1574C3.003 10.9444 1.83625 11.3718 0.63505 11.3704C0.42315 11.3697 0.21125 11.3566 0 11.3297C1.22005 12.1595 2.639 12.5999 4.0885 12.5978" fill="#444A54"/>
</svg>
